<svg xmlns="http://www.w3.org/2000/svg" viewBox="0 0 512 512"><path d="M507.333 17.317l-.001-.001a21.186 21.186 0 0 0-16.63-7.996H21.299C7.659 9.32-2.477 21.974.531 35.302 36.92 192.999 33.62 189.764 39.171 196.736c-2.915 3.443-4.683 7.888-4.683 12.743v38.845c0 4.143 3.357 7.5 7.5 7.5s7.5-3.357 7.5-7.5v-38.845c0-2.579 2.179-4.758 4.758-4.758h44.953c.723 8.424 7.052 15.663 15.548 17.362 2.941.588-10.423.381 220.754.381 4.143 0 7.5-3.357 7.5-7.5s-3.357-7.5-7.5-7.5h-216.94c-3.44 0-5.621-3.794-3.75-6.777a4.457 4.457 0 0 1 3.75-2.093c294.35.036 276.012-.573 277.909 1.218 2.921 2.758.965 7.652-3.035 7.652h-22.934c-4.143 0-7.5 3.357-7.5 7.5s3.357 7.5 7.5 7.5h22.934c10.145 0 18.488-7.817 19.351-17.742h44.966c2.579 0 4.758 2.179 4.758 4.758v273.44c0 2.579-2.179 4.759-4.758 4.759H439.15c-4.143 0-7.5 3.357-7.5 7.5s3.357 7.5 7.5 7.5h18.602c10.895 0 19.759-8.863 19.759-19.76V209.478c0-4.855-1.767-9.299-4.683-12.743 5.753-7.226 2.003-2.665 38.64-161.435a21.173 21.173 0 0 0-4.135-17.983zm-45.002 167.498a6.256 6.256 0 0 1-6.137 4.905h-48.598c-3.459-3.679-8.609-6.129-14.158-6.129-297.319.039-280.882-2.541-289.032 6.129h-48.6a6.258 6.258 0 0 1-6.136-4.905C14.679 25.879 12.797 31.178 16.384 26.684c3.606-4.509-24.801-1.455 474.318-2.363a6.26 6.26 0 0 1 4.913 2.362c3.474 4.348 1.987-2.069-33.284 158.132z"/><path d="M430.407 232.691H83.501c-8.353 0-15.148 6.795-15.148 15.147v109.118c0 10.248 8.337 18.586 18.586 18.586H429.82c8.388.002 15.212-6.822 15.212-15.211V247.315c0-8.063-6.562-14.624-14.625-14.624zm-18.255 15.001h17.88v10.632h-17.88v-10.632zm-32.88 0h17.88v10.632h-17.88v-10.632zm0 25.632h50.76v10.112h-50.76v-10.112zm16.44 35.227v-10.113h34.319v10.113h-34.319zm34.319 15.001v10.113h-50.76v-10.113h50.76zm-83.638-75.86h17.88v10.632h-17.88v-10.632zm0 25.632h17.88v10.112h-17.88v-10.112zm-115.08 35.226v-10.113h17.88v10.113h-17.88zm1.44 15.002v10.113h-17.88v-10.113h17.88zm15 0h17.88v10.113h-17.88v-10.113zm16.44-15.002v-10.113h17.879v10.113h-17.879zm16.441 15.002h17.879v10.113h-17.879v-10.113zm16.438-15.002v-10.113h17.88v10.113h-17.88zm16.441 15.002h17.88v10.113h-17.88v-10.113zm16.439-15.001v-10.113h17.88v10.113h-17.88zm-16.439-60.859h17.88v10.632h-17.88v-10.632zm0 25.632h17.88v10.112h-17.88v-10.112zm-32.879-25.632h17.879v10.632h-17.879v-10.632zm0 25.632h17.879v10.112h-17.879v-10.112zm-32.881-25.632h17.88v10.632h-17.88v-10.632zm0 25.632h17.88v10.112h-17.88v-10.112zm-32.88-25.632h17.88v10.632h-17.88v-10.632zm0 25.632h17.88v10.112h-17.879v-10.112zm1.44 25.113v10.113h-17.879v-10.113h17.879zm-34.319-25.113h17.879v10.112h-17.878v-10.112zm17.879 50.228v10.113h-17.88v-10.113h17.88zm-17.88-75.86h17.88v10.632h-17.88v-10.632zm-32.88 0h17.88v10.632h-17.88v-10.632zm17.879 85.973h-17.879v-10.113h17.878v10.113zm-17.878-50.228v-10.112h17.879v10.112h-17.879zm-32.881-35.745h17.88v10.632h-17.88v-10.632zm.001 25.632h17.879v10.112h-17.878v-10.112zm1.438 25.113v10.113H83.353v-10.113h34.319zm16.441 25.115v10.113h-50.76v-10.113h50.76zm-50.76-40.115v-10.112h17.88v10.112h-17.88zm.149-35.745h17.731v10.632h-17.88c.068-10.82-.139-10.632.149-10.632zm17.731 112.851H86.938a3.589 3.589 0 0 1-3.585-3.585v-8.292h17.88v11.877zm32.88 0h-17.88v-11.877h17.88v11.877zm-1.439-51.992v-10.113h17.878v10.113h-17.878zm34.319 51.992h-17.88v-11.877h17.88v11.877zm-1.439-51.992v-10.113h17.878v10.113h-17.878zm165.838 51.992H181.993v-11.877h149.399v11.877zm32.879 0h-17.88v-11.877h17.88v11.877zm0-26.878h-17.88v-10.113h17.88v10.113zm-1.439-25.114v-10.113h17.88v10.113h-17.88zm34.319 51.992h-17.88v-11.877h17.88v11.877zm32.668 0h-17.668v-11.877h17.88c-.095 11.891.199 11.877-.212 11.877zM317.643 383.9H192.316c-8.939 0-16.211 7.272-16.211 16.211v62.327c0 8.938 7.272 16.211 16.211 16.211h125.327c8.938 0 16.211-7.273 16.211-16.211v-62.327c0-8.938-7.272-16.211-16.211-16.211zm1.21 78.538c0 .668-.543 1.211-1.211 1.211H192.316c-2.346 0-.67-.298-1.211-63.538 0-.668.543-1.211 1.211-1.211h125.326c.668 0 1.211.543 1.211 1.211v62.327zM479.612 49.7c-.016-6.928-5.643-12.798-12.853-12.798H45.244c-8.232 0-14.35 7.637-12.533 15.682L58.573 167.12c1.332 5.898 6.486 10.018 12.534 10.018h369.787c6.048 0 11.202-4.12 12.534-10.018 27.197-120.957 26.19-114.669 26.184-117.42zm-40.437 112.438H72.826L54.34 80.273h403.322l-18.487 81.865zm21.873-96.865H50.953l-3.02-13.37h416.134l-3.019 13.37z"/><path d="M404.151 487.677H54.247c-2.579 0-4.758-2.18-4.758-4.759V283.325c0-4.143-3.357-7.5-7.5-7.5s-7.5 3.357-7.5 7.5v199.593c0 10.896 8.863 19.76 19.759 19.76h349.905a7.501 7.501 0 0 0-.002-15.001z"/></svg>