<svg xmlns="http://www.w3.org/2000/svg" viewBox="0 0 480 480" width="512" height="512"><path d="M360 32h-72V8a8 8 0 0 0-8-8H88a8 8 0 0 0-8 8v24H8a8 8 0 0 0-8 8v432a8 8 0 0 0 8 8h352a8 8 0 0 0 8-8V40a8 8 0 0 0-8-8zM96 16h176v16H96V16zm0 32h176v32h-65.368c-4.411-12.499-18.12-19.056-30.619-14.645A24.002 24.002 0 0 0 161.368 80H96V48zm256 416H16V48h64v40a8 8 0 0 0 8 8h80a8 8 0 0 0 8-8 8 8 0 0 1 16 0 8 8 0 0 0 8 8h80a8 8 0 0 0 8-8V48h64v416z" data-original="#000000" class="active-path" data-old_color="#ff214f" fill="#ff214f"/><path d="M80 112c-17.673 0-32 14.327-32 32s14.327 32 32 32 32-14.327 32-32-14.327-32-32-32zm0 48c-8.837 0-16-7.163-16-16s7.163-16 16-16 16 7.163 16 16-7.163 16-16 16zm0 32c-17.673 0-32 14.327-32 32s14.327 32 32 32 32-14.327 32-32-14.327-32-32-32zm0 48c-8.837 0-16-7.163-16-16s7.163-16 16-16 16 7.163 16 16-7.163 16-16 16zm232-120H200a8 8 0 0 0 0 16h112a8 8 0 0 0 0-16zm-144 0h-32a8 8 0 0 0 0 16h32a8 8 0 0 0 0-16zm144 32h-64a8 8 0 0 0 0 16h64a8 8 0 0 0 0-16zm-96 0h-80a8 8 0 0 0 0 16h80a8 8 0 0 0 0-16zm96 48h-32a8 8 0 0 0 0 16h32a8 8 0 0 0 0-16zm-64 0H136a8 8 0 0 0 0 16h112a8 8 0 0 0 0-16zm64 32h-88a8 8 0 0 0 0 16h88a8 8 0 0 0 0-16zm-120 0h-56a8 8 0 0 0 0 16h56a8 8 0 0 0 0-16zM448 32.8V32c0-17.673-14.327-32-32-32-17.673 0-32 14.327-32 32v384c0 .104.056.192.056.288.034.842.201 1.674.496 2.464.072.176.112.36.184.528.072.168.056.2.104.296L408 465.888V472a8 8 0 0 0 16 0v-6.112l23.2-46.312c.048-.096.056-.2.104-.296.048-.096.112-.352.184-.528.295-.79.462-1.622.496-2.464 0-.104.056-.184.056-.288V49.472A24 24 0 0 1 464 72v72a8 8 0 0 0 16 0V72c-.024-19.001-13.389-35.373-32-39.2zm-32 413.312L404.944 424h22.112L416 446.112zM432 408h-32V184h32v224zm0-240h-32V48h32v120zM400 32c0-8.837 7.163-16 16-16s16 7.163 16 16h-32zM240 312v-16h-24a8 8 0 0 0-5.656 2.344l-6.144 6.144c-30.639-37.727-86.061-43.472-123.787-12.833S36.941 377.716 67.58 415.443c30.639 37.727 86.061 43.472 123.787 12.833a88.89 88.89 0 0 0 2.233-1.875 87.858 87.858 0 0 0 10.464-10.96l6.232 6.232a7.999 7.999 0 0 0 5.704 2.328h24v-16h-20.688l-6.104-6.104a87.287 87.287 0 0 0 .104-83.896l6-6H240zm-38.616 78.072l-11.728-11.728-11.312 11.312 14.456 14.448c-1.36 1.744-2.776 3.448-4.296 5.072L147.312 368h60.24a71.755 71.755 0 0 1-6.168 22.072zM128 352a8 8 0 0 0-5.656 13.656L176.28 419.6c-32.925 22.297-77.691 13.681-99.988-19.244-22.297-32.925-13.681-77.691 19.244-99.988 31.434-21.287 73.997-14.51 97.264 15.488l-14.488 14.488 11.312 11.312 11.696-11.688A71.207 71.207 0 0 1 207.552 352H128zm160-80c-17.673 0-32 14.327-32 32 0 17.673 14.327 32 32 32 17.673 0 32-14.327 32-32 0-17.673-14.327-32-32-32zm0 48c-8.837 0-16-7.163-16-16s7.163-16 16-16 16 7.163 16 16-7.163 16-16 16zm0 64c-17.673 0-32 14.327-32 32 0 17.673 14.327 32 32 32 17.673 0 32-14.327 32-32 0-17.673-14.327-32-32-32zm0 48c-8.837 0-16-7.163-16-16s7.163-16 16-16 16 7.163 16 16-7.163 16-16 16z" data-original="#000000" class="active-path" data-old_color="#ff214f" fill="#ff214f"/></svg>